<svg xmlns="http://www.w3.org/2000/svg" width="40" height="40" viewBox="0 0 81.17 79">
  <defs>
    <style>
      .cls-1, .cls-2 {
        fill: #31af91;
      }

      .cls-2 {
        fill-rule: evenodd;
      }

      .cls-3 {
        fill: #fff;
      }

      .cls-4 {
        stroke: #fff;
        font-size: 25px;
        font-family: HiraKakuProN-W6, Hiragino Kaku Gothic ProN;
      }
    </style>
  </defs>
  <g id="グループ_16" data-name="グループ 16" transform="translate(-1485 -843)">
    <circle id="楕円形_3" data-name="楕円形 3" class="cls-1" cx="22" cy="22" r="22" transform="translate(1485 843)"/>
    <g id="グループ_12" data-name="グループ 12">
      <g id="Page-1" transform="translate(1506 862.188)">
        <g id="icon-136-document-edit" transform="translate(3 3)">
          <path id="document-edit" class="cls-2" d="M52.328,22.254,28.58,46.03h0L23.1,40.547l23.76-23.764,5.47,5.47Zm1.487-1.489,3.638-3.643a2.107,2.107,0,0,0-.01-2.979l-2.483-2.476a2.107,2.107,0,0,0-2.981-.007L48.346,15.3l5.469,5.469Zm-32.08,21.4-1.346,6.55,6.6-1.3L21.735,42.16Zm21.244-7.6V55.609a4.2,4.2,0,0,1-4.2,4.2H7.2A4.209,4.209,0,0,1,3,55.588V7.224A4.224,4.224,0,0,1,7.226,3H28.25V15.629a4.2,4.2,0,0,0,4.221,4.2h8.4L50.512,10.2a4.2,4.2,0,0,1,5.955-.02l2.482,2.482a4.216,4.216,0,0,1-.02,5.955l-15.95,15.95ZM30.354,3V15.619a2.108,2.108,0,0,0,2.085,2.11h10.54L30.354,3Z" transform="translate(-3 -3)"/>
        </g>
      </g>
      <circle id="楕円形_4" data-name="楕円形 4" class="cls-3" cx="19" cy="19" r="19" transform="translate(1488 846)"/>
      <text id="_" data-name="+" class="cls-4" transform="translate(1498 871)"><tspan x="0" y="0">+</tspan></text>
    </g>
  </g>
</svg>
